<svg width="116" height="115" viewBox="0 0 116 115" fill="none" xmlns="http://www.w3.org/2000/svg">
<g id="Group 26">
<g id="Capa_x0020_1">
<path id="Vector" d="M65.4195 91.7812L55.0338 75.7294C55.802 75.3743 56.5097 75.0407 57.0846 74.7665L67.392 90.8866L65.4195 91.7812ZM51.7155 93.3519C50.884 92.9867 48.3605 91.7218 44.998 88.5703C38.0594 82.0652 32.9759 72.6992 29.933 65.9868C24.8431 54.7582 23.4595 45.8407 23.1954 40.3364C22.9692 35.5889 23.5125 32.4994 23.7451 31.4303L30.2906 24.9012L35.4677 42.3076C35.1733 42.4517 34.8865 42.5945 34.6135 42.7335C34.4492 42.8169 34.2913 42.9117 34.1409 43.0127C33.0024 43.7798 31.6629 45.4553 31.7501 49.0908C31.7956 50.9761 32.205 52.6049 32.2227 52.6732C32.2493 52.7768 32.2847 52.8779 32.3276 52.9752L41.264 72.6865C41.3082 72.7838 41.36 72.8773 41.4219 72.9645C41.7783 73.4839 45.0208 78.0418 48.775 78.0418C49.1743 78.0418 49.5711 77.9912 49.9527 77.8902C50.1296 77.8434 50.3053 77.7853 50.4733 77.7183C50.8587 77.5654 51.2643 77.3973 51.6801 77.2204L61.6804 92.6797L51.7142 93.3506L51.7155 93.3519ZM35.862 21.3327L41.1932 39.7096C40.526 39.9965 39.6895 40.3604 38.7923 40.7622L33.3512 22.4699L35.8607 21.3327H35.862ZM59.2745 71.457C58.7779 70.6786 57.7758 70.3994 56.9482 70.805C56.9014 70.829 52.2272 73.1174 49.1301 74.3507C49.096 74.3646 49.0593 74.3773 49.0252 74.3861C48.9469 74.4063 48.8647 74.4164 48.7763 74.4164C47.4912 74.4164 45.5073 72.4426 44.4989 71.0362L35.7028 51.6357C35.2415 49.6683 35.1493 46.7089 36.1678 46.0227C36.1981 46.0025 36.2297 45.9823 36.2638 45.9658C36.8388 45.6727 37.4832 45.3606 38.1479 45.0485C38.1555 45.0459 38.1643 45.0459 38.1744 45.0434C38.3614 44.9865 38.532 44.9031 38.6849 44.797C41.3032 43.5852 44.0465 42.4391 44.0819 42.4239C44.9323 42.0688 45.3822 41.1312 45.1256 40.2441L38.762 18.3101C38.6154 17.8034 38.2566 17.3864 37.7789 17.1665C37.3013 16.9466 36.7503 16.9441 36.2714 17.1614L30.4132 19.8176C30.4056 19.8214 30.3981 19.8264 30.3892 19.8315C30.3008 19.8719 30.2161 19.9199 30.1352 19.9743C30.1302 19.9793 30.1264 19.9819 30.1213 19.9857C30.0354 20.0463 29.9545 20.112 29.8812 20.1853L29.8749 20.1929L20.8223 29.2202C20.6049 29.4363 20.4457 29.7042 20.3611 29.9986C20.1905 30.5862 16.2896 44.6757 26.6287 67.4829C37.9015 92.3524 50.3267 96.7334 50.8511 96.9078C51.0356 96.9697 51.229 97 51.4248 97C51.4653 97 51.5057 96.9987 51.5461 96.9975L64.3126 96.1382C64.5287 96.123 64.7409 96.07 64.9393 95.9803L65.0745 95.9196C65.3134 95.8792 65.5484 95.7945 65.7645 95.6542C65.8251 95.6163 65.8795 95.5734 65.9325 95.5291L70.7963 93.3254C71.2752 93.108 71.6366 92.6936 71.7857 92.1894C71.9348 91.6839 71.8577 91.1393 71.5746 90.6958L59.272 71.4545L59.2745 71.457Z" fill="white"/>
<path id="Vector_2" d="M61.252 35.0936C61.9002 34.1332 62.4398 33.207 62.8694 32.3174C63.299 31.4278 63.6213 30.5407 63.8336 29.6574C64.0458 28.7729 64.152 27.8366 64.152 26.8446C64.152 24.6636 63.5669 22.9602 62.393 21.7345C61.2191 20.5088 59.589 19.8947 57.5028 19.8947C56.2644 19.8947 55.1158 20.1537 54.0556 20.6743C52.9942 21.1924 51.8443 22.154 50.6059 23.5554L53.2936 26.3846C54.072 25.5241 54.7316 24.9289 55.275 24.5979C55.8171 24.2681 56.4009 24.1025 57.0264 24.1025C57.7328 24.1025 58.3077 24.3502 58.75 24.8455C59.1922 25.3409 59.4121 26.0839 59.4121 27.0733C59.4121 27.9225 59.2997 28.7451 59.0773 29.5399C58.8523 30.336 58.5048 31.1662 58.0322 32.0343C57.5609 32.8999 56.6941 34.2293 55.4342 36.0211L50.8359 42.5288V46.1187H64.7004V41.8388H56.2303V41.6973C58.9307 38.2539 60.6037 36.0527 61.2532 35.091L61.252 35.0936Z" fill="white"/>
<path id="Vector_3" d="M75.4705 28.8601L75.382 31.2648V36.7123H70.996L74.1083 30.0454C74.5923 29.0079 75.0396 27.8467 75.4528 26.5616H75.5943L75.4692 28.8614L75.4705 28.8601ZM74.7628 20.2649L66.946 36.7818V40.6902H75.382V46.1187H79.9096V40.6902H82.5278V36.711H79.9096V20.2649H74.7641H74.7628Z" fill="white"/>
<path id="Vector_4" d="M56.2645 58.0145V49.2474H54.6344V52.7313H52.4812V49.2474H50.8511V58.0145H52.4812V54.1718H54.6344V58.0145H56.2645Z" fill="white"/>
<path id="Vector_5" d="M60.696 56.689C60.2095 56.689 59.838 56.4274 59.5866 55.9043C59.3351 55.3799 59.2087 54.6179 59.2087 53.6196C59.2087 52.615 59.3351 51.8531 59.5866 51.3312C59.838 50.8093 60.2121 50.549 60.7087 50.549C61.6842 50.549 62.1719 51.5738 62.1719 53.6196C62.1719 55.6654 61.6804 56.689 60.696 56.689ZM60.7087 49.1097C59.6851 49.1097 58.9017 49.4964 58.3583 50.2698C57.815 51.0431 57.5433 52.1563 57.5433 53.607C57.5433 55.0703 57.815 56.1911 58.3583 56.9682C58.9017 57.7466 59.6813 58.1346 60.696 58.1346C61.7069 58.1346 62.4853 57.7454 63.0287 56.9657C63.572 56.1861 63.8437 55.0703 63.8437 53.6196C63.8437 52.169 63.5733 51.0545 63.0337 50.2761C62.4929 49.4989 61.7183 49.111 60.7074 49.111L60.7087 49.1097Z" fill="white"/>
<path id="Vector_6" d="M65.0846 49.2474V54.8959C65.0846 55.9636 65.3133 56.7698 65.7682 57.3157C66.2231 57.8616 66.8878 58.1345 67.7597 58.1345C68.6506 58.1345 69.3316 57.8591 69.8042 57.3094C70.2756 56.7597 70.5119 55.9636 70.5119 54.9199V49.2474H68.8932V55.0525C68.8932 55.5757 68.7997 55.98 68.6114 56.2631C68.4231 56.5474 68.1577 56.6889 67.814 56.6889C67.0748 56.6889 66.7058 56.1317 66.7058 55.0159V49.2474H65.0859H65.0846Z" fill="white"/>
<path id="Vector_7" d="M74.9018 52.8728C74.7337 53.0901 74.4582 53.1988 74.0741 53.1988H73.6546V50.6564H74.0614C74.4342 50.6564 74.7084 50.7512 74.8866 50.942C75.0648 51.1315 75.1532 51.4499 75.1532 51.8973C75.1532 52.3294 75.0698 52.6542 74.9018 52.8728ZM77.3658 58.0145L75.6814 54.1718C76.4295 53.7308 76.8035 52.9574 76.8035 51.8505C76.8035 50.971 76.5887 50.3177 76.1591 49.8894C75.7282 49.461 75.0622 49.2474 74.1587 49.2474H72.0245V58.0145H73.6558V54.604H74.2371L75.622 58.0145H77.3658Z" fill="white"/>
<path id="Vector_8" d="M79.6038 56.7131C79.0567 56.7131 78.4552 56.5008 77.7994 56.0724V57.6848C78.3352 57.9855 78.9847 58.1346 79.7479 58.1346C80.5276 58.1346 81.124 57.9173 81.5372 57.4813C81.9517 57.0454 82.1576 56.4174 82.1576 55.5985C82.1576 55.0868 82.0452 54.6319 81.819 54.2313C81.5941 53.832 81.1947 53.439 80.6236 53.0561C80.2003 52.7756 79.9033 52.5254 79.7327 52.3055C79.5634 52.0856 79.4775 51.8279 79.4775 51.5322C79.4775 51.234 79.5482 50.9964 79.6898 50.822C79.8313 50.6476 80.0347 50.5617 80.2988 50.5617C80.5389 50.5617 80.7639 50.6059 80.9736 50.6931C81.1834 50.7816 81.383 50.8814 81.5764 50.9926L82.1159 49.686C81.4968 49.3095 80.851 49.1224 80.1788 49.1224C79.475 49.1224 78.9152 49.3423 78.4969 49.7821C78.0799 50.2218 77.8701 50.817 77.8701 51.5688C77.8701 51.9605 77.9232 52.3055 78.0294 52.6012C78.1355 52.8969 78.2846 53.1623 78.4779 53.4011C78.6725 53.6386 78.9569 53.8876 79.3334 54.1479C79.7656 54.4448 80.0752 54.7127 80.2622 54.9553C80.4505 55.1967 80.544 55.4633 80.544 55.7552C80.544 56.0509 80.4656 56.2859 80.3077 56.4578C80.1497 56.6284 79.9147 56.7156 79.6038 56.7156V56.7131Z" fill="white"/>
<path id="Vector_9" d="M98.2069 56.8899C98.2069 47.0475 93.7173 37.7106 86.1974 31.9169C85.4051 31.3053 84.2653 31.4531 83.655 32.2467C83.0434 33.0402 83.1912 34.1787 83.9848 34.7903C90.6188 39.9017 94.5803 48.1633 94.5803 56.8899C94.5803 67.0773 89.3135 76.2879 80.9913 80.9747L84.1187 74.3406C84.5458 73.4346 84.1566 72.353 83.2506 71.9259C82.3433 71.4987 81.2642 71.8879 80.8358 72.794L75.7042 83.6789C75.4667 84.1843 75.4743 84.7706 75.7257 85.2685C75.9772 85.7676 76.4447 86.1227 76.9931 86.2314L89.589 88.7182C89.7078 88.7422 89.8265 88.7536 89.9428 88.7536C90.7907 88.7536 91.5501 88.1546 91.7195 87.2903C91.9141 86.3085 91.2759 85.3532 90.2928 85.1598L83.3669 83.7926C92.4764 78.3716 98.2069 68.1489 98.2069 56.8887V56.8899Z" fill="white"/>
</g>
</g>
</svg>
