<svg width="360" height="126" viewBox="0 0 360 126" fill="none" xmlns="http://www.w3.org/2000/svg">
<g clip-path="url(#clip0_257_781)">
<rect width="360" height="138" transform="translate(0 -12)" fill="#1F5492"/>
<path fill-rule="evenodd" clip-rule="evenodd" d="M-24.6142 -19.9511L-16.4442 -35.3833L-24.6142 -49L-33.692 -35.3833L-24.6142 -19.9511ZM-25.3291 5.87799L-33.4991 21.3102L-25.3291 34.9269L-16.2514 21.3102L-25.3291 5.87799ZM-44.1401 -27.6663L-34.8604 -12.8747L-52.764 -12.7293L-60.0175 -27.3992L-44.1401 -27.6663ZM-15.0823 -1.19593L-5.80262 13.5956L10.0748 13.3285L2.82128 -1.3414L-15.0823 -1.19593ZM2.82143 -12.7292L-14.6283 -12.0885L-5.80246 -27.6662L2.36317 -27.1396L10.5288 -26.613L2.82143 -12.7292ZM-35.3142 -1.98214L-52.7639 -1.34146L-60.4713 12.5423L-44.1401 13.5956L-35.3142 -1.98214Z" fill="#275A94"/>
<path fill-rule="evenodd" clip-rule="evenodd" d="M57.3858 -19.9511L65.5558 -35.3833L57.3858 -49L48.308 -35.3833L57.3858 -19.9511ZM56.6709 5.87799L48.5009 21.3102L56.6709 34.9269L65.7486 21.3102L56.6709 5.87799ZM37.8599 -27.6663L47.1396 -12.8747L29.236 -12.7293L21.9825 -27.3992L37.8599 -27.6663ZM66.9177 -1.19593L76.1974 13.5956L92.0748 13.3285L84.8213 -1.3414L66.9177 -1.19593ZM84.8214 -12.7292L67.3717 -12.0885L76.1975 -27.6662L84.3632 -27.1396L92.5288 -26.613L84.8214 -12.7292ZM46.6858 -1.98214L29.2361 -1.34146L21.5287 12.5423L37.8599 13.5956L46.6858 -1.98214Z" fill="#275A94"/>
<path fill-rule="evenodd" clip-rule="evenodd" d="M139.386 -19.9511L147.556 -35.3833L139.386 -49L130.308 -35.3833L139.386 -19.9511ZM138.671 5.87799L130.501 21.3102L138.671 34.9269L147.749 21.3102L138.671 5.87799ZM119.86 -27.6663L129.14 -12.8747L111.236 -12.7293L103.983 -27.3992L119.86 -27.6663ZM148.918 -1.19593L158.198 13.5956L174.075 13.3285L166.822 -1.3414L148.918 -1.19593ZM166.822 -12.7292L149.372 -12.0885L158.198 -27.6662L166.363 -27.1396L174.529 -26.613L166.822 -12.7292ZM128.686 -1.98214L111.236 -1.34146L103.529 12.5423L119.86 13.5956L128.686 -1.98214Z" fill="#275A94"/>
<path fill-rule="evenodd" clip-rule="evenodd" d="M221.386 -19.9511L229.556 -35.3833L221.386 -49L212.308 -35.3833L221.386 -19.9511ZM220.671 5.87799L212.501 21.3102L220.671 34.9269L229.749 21.3102L220.671 5.87799ZM201.86 -27.6663L211.14 -12.8747L193.236 -12.7293L185.983 -27.3992L201.86 -27.6663ZM230.918 -1.19593L240.198 13.5956L256.075 13.3285L248.822 -1.3414L230.918 -1.19593ZM248.822 -12.7292L231.372 -12.0885L240.198 -27.6662L248.364 -27.1396L256.529 -26.613L248.822 -12.7292ZM210.686 -1.98214L193.236 -1.34146L185.529 12.5423L201.86 13.5956L210.686 -1.98214Z" fill="#275A94"/>
<path fill-rule="evenodd" clip-rule="evenodd" d="M303.386 -19.9511L311.556 -35.3833L303.386 -49L294.309 -35.3833L303.386 -19.9511ZM302.671 5.87799L294.501 21.3102L302.671 34.9269L311.749 21.3102L302.671 5.87799ZM283.86 -27.6663L293.14 -12.8747L275.237 -12.7293L267.983 -27.3992L283.86 -27.6663ZM312.918 -1.19593L322.198 13.5956L338.075 13.3285L330.822 -1.3414L312.918 -1.19593ZM330.822 -12.7292L313.372 -12.0885L322.198 -27.6662L330.364 -27.1396L338.529 -26.613L330.822 -12.7292ZM292.686 -1.98214L275.237 -1.34146L267.529 12.5423L283.86 13.5956L292.686 -1.98214Z" fill="#275A94"/>
<path fill-rule="evenodd" clip-rule="evenodd" d="M385.386 -19.9511L393.556 -35.3833L385.386 -49L376.309 -35.3833L385.386 -19.9511ZM384.672 5.87799L376.502 21.3102L384.672 34.9269L393.749 21.3102L384.672 5.87799ZM365.861 -27.6663L375.14 -12.8747L357.237 -12.7293L349.983 -27.3992L365.861 -27.6663ZM394.918 -1.19593L404.198 13.5956L420.075 13.3285L412.822 -1.3414L394.918 -1.19593ZM412.822 -12.7292L395.372 -12.0885L404.198 -27.6662L412.364 -27.1396L420.529 -26.613L412.822 -12.7292ZM374.686 -1.98214L357.237 -1.34146L349.529 12.5423L365.861 13.5956L374.686 -1.98214Z" fill="#275A94"/>
<path fill-rule="evenodd" clip-rule="evenodd" d="M-44.1401 25.0212L-34.8604 39.8128L-52.764 39.9583L-60.0175 25.2883L-44.1401 25.0212ZM-33.4991 73.9977L-25.3291 58.5655L-16.2514 73.9977L-25.3291 87.6144L-33.4991 73.9977ZM-15.0823 51.4916L-5.80262 66.2831L10.0748 66.016L2.82128 51.3461L-15.0823 51.4916ZM2.82143 39.9583L-14.6283 40.599L-5.80246 25.0213L2.36317 25.5479L10.5288 26.0745L2.82143 39.9583ZM-35.3142 50.7054L-52.7639 51.3461L-60.4713 65.2298L-44.1401 66.2831L-35.3142 50.7054Z" fill="#275A94"/>
<path fill-rule="evenodd" clip-rule="evenodd" d="M37.86 25.0212L47.1397 39.8128L29.2361 39.9583L21.9826 25.2883L37.86 25.0212ZM48.501 73.9977L56.671 58.5655L65.7488 73.9977L56.671 87.6144L48.501 73.9977ZM66.9178 51.4916L76.1975 66.2831L92.0749 66.016L84.8214 51.3461L66.9178 51.4916ZM84.8216 39.9583L67.3719 40.599L76.1977 25.0213L84.3633 25.5479L92.5289 26.0745L84.8216 39.9583ZM46.6859 50.7054L29.2362 51.3461L21.5288 65.2298L37.8601 66.2831L46.6859 50.7054Z" fill="#275A94"/>
<path fill-rule="evenodd" clip-rule="evenodd" d="M119.86 25.0212L129.14 39.8128L111.236 39.9583L103.983 25.2883L119.86 25.0212ZM130.501 73.9977L138.671 58.5655L147.749 73.9977L138.671 87.6144L130.501 73.9977ZM148.918 51.4916L158.198 66.2831L174.075 66.016L166.822 51.3461L148.918 51.4916ZM166.822 39.9583L149.372 40.599L158.198 25.0213L166.363 25.5479L174.529 26.0745L166.822 39.9583ZM128.686 50.7054L111.236 51.3461L103.529 65.2298L119.86 66.2831L128.686 50.7054Z" fill="#275A94"/>
<path fill-rule="evenodd" clip-rule="evenodd" d="M201.86 25.0212L211.14 39.8128L193.236 39.9583L185.983 25.2883L201.86 25.0212ZM212.501 73.9977L220.671 58.5655L229.749 73.9977L220.671 87.6144L212.501 73.9977ZM230.918 51.4916L240.198 66.2831L256.075 66.016L248.822 51.3461L230.918 51.4916ZM248.822 39.9583L231.372 40.599L240.198 25.0213L248.364 25.5479L256.529 26.0745L248.822 39.9583ZM210.686 50.7054L193.236 51.3461L185.529 65.2298L201.86 66.2831L210.686 50.7054Z" fill="#275A94"/>
<path fill-rule="evenodd" clip-rule="evenodd" d="M283.86 25.0212L293.14 39.8128L275.237 39.9583L267.983 25.2883L283.86 25.0212ZM294.501 73.9977L302.671 58.5655L311.749 73.9977L302.671 87.6144L294.501 73.9977ZM312.918 51.4916L322.198 66.2831L338.075 66.016L330.822 51.3461L312.918 51.4916ZM330.822 39.9583L313.372 40.599L322.198 25.0213L330.364 25.5479L338.529 26.0745L330.822 39.9583ZM292.686 50.7054L275.237 51.3461L267.529 65.2298L283.86 66.2831L292.686 50.7054Z" fill="#275A94"/>
<path fill-rule="evenodd" clip-rule="evenodd" d="M365.861 25.0212L375.14 39.8128L357.237 39.9583L349.983 25.2883L365.861 25.0212ZM376.502 73.9977L384.672 58.5655L393.749 73.9977L384.672 87.6144L376.502 73.9977ZM394.918 51.4916L404.198 66.2831L420.075 66.016L412.822 51.3461L394.918 51.4916ZM412.822 39.9583L395.372 40.599L404.198 25.0213L412.364 25.5479L420.529 26.0745L412.822 39.9583ZM374.686 50.7054L357.237 51.3461L349.529 65.2298L365.861 66.2831L374.686 50.7054Z" fill="#275A94"/>
<path fill-rule="evenodd" clip-rule="evenodd" d="M-44.1401 76.3428L-34.8604 91.1343L-52.764 91.2798L-60.0175 76.6099L-44.1401 76.3428ZM-33.4991 125.319L-25.3291 109.887L-16.2514 125.319L-25.3291 138.936L-33.4991 125.319ZM-15.0823 102.813L-5.80262 117.605L10.0748 117.338L2.82128 102.668L-15.0823 102.813ZM2.82143 91.2798L-14.6283 91.9205L-5.80246 76.3428L2.36317 76.8695L10.5288 77.3961L2.82143 91.2798ZM-35.3142 102.027L-52.7639 102.668L-60.4713 116.551L-44.1401 117.605L-35.3142 102.027Z" fill="#275A94"/>
<path fill-rule="evenodd" clip-rule="evenodd" d="M37.86 76.3428L47.1397 91.1343L29.2361 91.2798L21.9826 76.6099L37.86 76.3428ZM48.501 125.319L56.671 109.887L65.7488 125.319L56.671 138.936L48.501 125.319ZM66.9178 102.813L76.1975 117.605L92.0749 117.338L84.8214 102.668L66.9178 102.813ZM84.8216 91.2798L67.3719 91.9205L76.1977 76.3428L84.3633 76.8695L92.5289 77.3961L84.8216 91.2798ZM46.6859 102.027L29.2362 102.668L21.5288 116.551L37.8601 117.605L46.6859 102.027Z" fill="#275A94"/>
<path fill-rule="evenodd" clip-rule="evenodd" d="M119.86 76.3428L129.14 91.1343L111.236 91.2798L103.983 76.6099L119.86 76.3428ZM130.501 125.319L138.671 109.887L147.749 125.319L138.671 138.936L130.501 125.319ZM148.918 102.813L158.198 117.605L174.075 117.338L166.822 102.668L148.918 102.813ZM166.822 91.2798L149.372 91.9205L158.198 76.3428L166.363 76.8695L174.529 77.3961L166.822 91.2798ZM128.686 102.027L111.236 102.668L103.529 116.551L119.86 117.605L128.686 102.027Z" fill="#275A94"/>
<path fill-rule="evenodd" clip-rule="evenodd" d="M201.86 76.3428L211.14 91.1343L193.236 91.2798L185.983 76.6099L201.86 76.3428ZM212.501 125.319L220.671 109.887L229.749 125.319L220.671 138.936L212.501 125.319ZM230.918 102.813L240.198 117.605L256.075 117.338L248.822 102.668L230.918 102.813ZM248.822 91.2798L231.372 91.9205L240.198 76.3428L248.364 76.8695L256.529 77.3961L248.822 91.2798ZM210.686 102.027L193.236 102.668L185.529 116.551L201.86 117.605L210.686 102.027Z" fill="#275A94"/>
<path fill-rule="evenodd" clip-rule="evenodd" d="M283.86 76.3428L293.14 91.1343L275.237 91.2798L267.983 76.6099L283.86 76.3428ZM294.501 125.319L302.671 109.887L311.749 125.319L302.671 138.936L294.501 125.319ZM312.918 102.813L322.198 117.605L338.075 117.338L330.822 102.668L312.918 102.813ZM330.822 91.2798L313.372 91.9205L322.198 76.3428L330.364 76.8695L338.529 77.3961L330.822 91.2798ZM292.686 102.027L275.237 102.668L267.529 116.551L283.86 117.605L292.686 102.027Z" fill="#275A94"/>
<path fill-rule="evenodd" clip-rule="evenodd" d="M365.861 76.3428L375.14 91.1343L357.237 91.2798L349.983 76.6099L365.861 76.3428ZM376.502 125.319L384.672 109.887L393.749 125.319L384.672 138.936L376.502 125.319ZM394.918 102.813L404.198 117.605L420.075 117.338L412.822 102.668L394.918 102.813ZM412.822 91.2798L395.372 91.9205L404.198 76.3428L412.364 76.8695L420.529 77.3961L412.822 91.2798ZM374.686 102.027L357.237 102.668L349.529 116.551L365.861 117.605L374.686 102.027Z" fill="#275A94"/>
</g>
<defs>
<clipPath id="clip0_257_781">
<rect width="360" height="138" fill="white" transform="translate(0 -12)"/>
</clipPath>
</defs>
</svg>
