<svg width="116" height="115" viewBox="0 0 116 115" fill="none" xmlns="http://www.w3.org/2000/svg">
<g id="Group 30">
<g id="Capa_x0020_1">
<path id="Vector" d="M74.9781 70.4457H77.3427V71.7608H74.9442C74.5253 71.5796 74.0937 71.3512 73.781 71.1522C74.0964 70.9264 74.5414 70.6608 74.9781 70.4458V70.4457ZM77.3427 43.1392V44.4545H74.9772C74.5414 44.2394 74.0954 43.9746 73.7802 43.7479C74.0928 43.549 74.5253 43.3206 74.9442 43.1393H77.3427V43.1392ZM55.5444 24.198L71.4525 51.5382H62.3944L54.154 23.6397L55.5443 24.198H55.5444ZM69.2827 30.9746V32.1221H67.0876C66.7074 31.9334 66.3195 31.7056 66.0295 31.5042C66.3162 31.3281 66.6895 31.1333 67.0536 30.9746H69.2827ZM58.5118 25.3882L74.9965 51.5382H73.6839L58.4545 25.3655L58.5118 25.3882ZM24.1291 44.0153L28.8692 53.2595L29.4898 54.47L30.1111 55.6816L30.3699 56.1856H24.5024L24.4166 55.8324L21.5647 44.0153H24.1292H24.1291ZM28.7225 61.9577L24.1291 70.9164H21.5646L24.3136 59.5289L24.4687 58.8859H30.2981L29.9684 59.5289L29.3464 60.7412L28.7225 61.9577ZM71.4964 63.4244L55.6471 90.6609L54.1541 91.2595L62.3767 63.4243H71.4964V63.4244ZM58.9694 88.7854L73.7269 63.4244H74.9568L58.9693 88.7854H58.9694ZM69.2827 82.7781V83.9247H67.0536C66.6894 83.766 66.3162 83.5715 66.0295 83.3951C66.3196 83.1947 66.7075 82.9662 67.0876 82.7781H69.2827ZM91.1679 59.6916C89.0106 60.2945 86.8912 60.6493 86.421 60.7244H35.2439C34.3207 60.582 33.4493 60.4166 32.6399 60.2362L33.3319 58.8858H34.8856C35.631 58.8858 36.2353 58.2813 36.2353 57.5362C36.2353 56.7902 35.631 56.1856 34.8856 56.1856H33.4036L32.7266 54.8662C33.9458 54.5307 34.9387 54.3107 35.2812 54.2373H86.4301C86.9006 54.3066 89.1953 54.6605 91.4661 55.3114C94.9781 56.3189 95.7629 57.2714 95.7992 57.5075C95.7479 57.6119 95.1739 58.572 91.1679 59.6916ZM92.2105 52.7166C89.4928 51.9368 86.8222 51.566 86.7102 51.55C86.6495 51.5416 86.5878 51.5383 86.5264 51.5383H78.1881L75.424 47.1538H78.6923C79.4376 47.1538 80.0419 46.5493 80.0419 45.8042V41.7889C80.0419 41.0436 79.4376 40.4393 78.6923 40.4393H74.6763C74.5076 40.4393 74.3399 40.4713 74.1832 40.5327C73.4431 40.8228 72.6354 41.2131 71.988 41.7029L67.65 34.8215H70.6332C71.3785 34.8215 71.9828 34.217 71.9828 33.4719V29.6251C71.9828 28.88 71.3785 28.2755 70.6332 28.2755H66.7849C66.6165 28.2755 66.4494 28.3068 66.2917 28.3684C65.6091 28.6363 64.867 28.9931 64.2561 29.438L60.5629 23.5785C60.4102 23.3381 60.1867 23.151 59.923 23.0456L52.5728 20.0968C52.0932 19.9047 51.5444 20.0031 51.1617 20.3513C50.7789 20.6995 50.6288 21.2357 50.7756 21.7323L59.5798 51.5384H35.1412C35.0509 51.5384 34.9608 51.5467 34.8724 51.5644C34.7914 51.5811 33.3103 51.8845 31.4699 52.4141L26.1549 42.0494C25.9238 41.5991 25.4602 41.316 24.9536 41.316H19.8501C19.436 41.316 19.0457 41.5055 18.7896 41.831C18.5331 42.1555 18.4404 42.5804 18.5382 42.9825L21.7247 56.1856H19.9571C19.2118 56.1856 18.6075 56.7901 18.6075 57.5362C18.6075 58.2813 19.2118 58.8858 19.9571 58.8858H21.6909L18.5381 71.9499C18.4403 72.3518 18.533 72.7759 18.7895 73.1014C19.0457 73.4266 19.4359 73.6164 19.85 73.6164H24.9535C25.4601 73.6164 25.9237 73.3322 26.1548 72.8821L31.377 62.6978C33.2906 63.1564 34.8553 63.3967 34.938 63.4094C35.0054 63.4194 35.0728 63.4245 35.1412 63.4245H59.5613L50.7754 93.1682C50.6286 93.6638 50.7788 94.2 51.1616 94.5489C51.4144 94.779 51.7398 94.8997 52.0703 94.8997C52.2397 94.8997 52.4098 94.8684 52.5726 94.8027L59.9227 91.8547C60.1866 91.7486 60.41 91.5622 60.5626 91.3211L64.2558 85.4616C64.8669 85.9075 65.6088 86.2633 66.2915 86.5315C66.4492 86.5928 66.6162 86.6249 66.7847 86.6249H70.6329C71.3782 86.6249 71.9826 86.0206 71.9826 85.2745V81.4287C71.9826 80.6827 71.3782 80.0781 70.6329 80.0781H67.6497L71.9878 73.1967C72.6351 73.6866 73.4428 74.0768 74.1829 74.3676C74.3397 74.4292 74.5075 74.4603 74.6761 74.4603H78.692C79.4374 74.4603 80.0417 73.856 80.0417 73.1106V69.0964C80.0417 68.3504 79.4374 67.746 78.692 67.746H75.4238L78.1483 63.4246H86.5261C86.5935 63.4246 86.6609 63.4195 86.7276 63.4095C86.8396 63.3925 89.5026 62.9863 92.2139 62.2007C96.503 60.9588 98.5 59.4727 98.5 57.5237C98.5 54.8321 94.9105 53.4908 92.2103 52.7168L92.2105 52.7166Z" fill="white"/>
</g>
</g>
</svg>
