<svg width="116" height="115" viewBox="0 0 116 115" fill="none" xmlns="http://www.w3.org/2000/svg">
<g id="Group 32">
<g id="Capa_x0020_1">
<path id="Vector" d="M38.7779 82.3606C35.5545 82.3606 32.9319 79.7388 32.9319 76.5147C32.9319 73.2914 35.5545 70.6688 38.7779 70.6688C42.0019 70.6688 44.6238 73.2914 44.6238 76.5147C44.6238 79.7388 42.0019 82.3606 38.7779 82.3606ZM38.7779 68.1189C34.1485 68.1189 30.3813 71.8853 30.3813 76.5147C30.3813 81.1448 34.1485 84.9112 38.7779 84.9112C43.4087 84.9112 47.1751 81.1448 47.1751 76.5147C47.1751 71.8853 43.4087 68.1189 38.7779 68.1189Z" fill="white"/>
<path id="Vector_2" d="M38.7779 73.0076C36.841 73.0076 35.2708 74.5785 35.2708 76.5154C35.2708 78.453 36.8417 80.0226 38.7779 80.0226C40.7148 80.0226 42.2857 78.453 42.2857 76.5154C42.2857 74.5785 40.7148 73.0076 38.7779 73.0076Z" fill="white"/>
<path id="Vector_3" d="M81.704 82.3606C78.4807 82.3606 75.8581 79.7388 75.8581 76.5147C75.8581 73.2914 78.4807 70.6688 81.704 70.6688C84.9281 70.6688 87.5507 73.2914 87.5507 76.5147C87.5507 79.7388 84.9281 82.3606 81.704 82.3606ZM81.704 68.1189C77.0747 68.1189 73.3082 71.8853 73.3082 76.5147C73.3082 81.1448 77.0747 84.9112 81.704 84.9112C86.3341 84.9112 90.1006 81.1448 90.1006 76.5147C90.1006 71.8853 86.3341 68.1189 81.704 68.1189Z" fill="white"/>
<path id="Vector_4" d="M81.7041 73.0076C79.7673 73.0076 78.1963 74.5785 78.1963 76.5154C78.1963 78.453 79.7673 80.0226 81.7041 80.0226C83.6417 80.0226 85.2113 78.453 85.2113 76.5154C85.2113 74.5785 83.6417 73.0076 81.7041 73.0076Z" fill="white"/>
<path id="Vector_5" d="M95.9516 71.732H92.4538C90.5753 67.5197 86.3637 64.7479 81.7041 64.7479C77.0459 64.7479 72.8343 67.5197 70.955 71.732H49.5262C47.6476 67.5197 43.4367 64.7479 38.7771 64.7479C34.1182 64.7479 29.9074 67.5197 28.0288 71.732H24.5426V63.8418H95.9516V71.732ZM21.052 61.1486V59.3457H69.8616V61.1486H21.052ZM21.052 32.5506H69.8616V34.455H21.052V32.5506ZM66.4611 36.2767H69.8616V57.5233H66.4611V36.2767ZM61.3931 36.2767H64.8217V57.5233H61.3931V36.2767ZM56.3243 36.2767H59.753V57.5233H56.3243V36.2767ZM51.2563 36.2767H54.6849V57.5233H51.2563V36.2767ZM46.1883 36.2767H49.6162V57.5233H46.1883V36.2767ZM41.1203 36.2767H44.5489V57.5233H41.1203V36.2767ZM36.0515 36.2767H39.4801V57.5233H36.0515V36.2767ZM30.9828 36.2767H34.4114V57.5233H30.9828V36.2767ZM25.9148 36.2767H29.3434V57.5233H25.9148V36.2767ZM21.0513 36.2767H24.2746V57.5233H21.0513V36.2767ZM72.4309 40.8052H82.3552C85.0326 43.412 88.6197 49.958 88.6571 50.0265C88.7954 50.2807 89.0173 50.4803 89.2838 50.5919L95.9501 53.3859V61.2912H72.4302V40.8052H72.4309ZM97.7185 51.3612L90.6776 48.4101C89.7801 46.8089 86.3694 40.8952 83.6892 38.5672C83.4573 38.3656 83.1605 38.2539 82.8529 38.2539H72.4115V31.2756C72.4115 30.5705 71.8403 30 71.1366 30H19.7749C19.0705 30 18.5 30.5712 18.5 31.2756V62.4235C18.5 63.1273 19.0712 63.6985 19.7749 63.6985H21.9906V73.0062C21.9906 73.7099 22.5618 74.2811 23.2662 74.2811H28.8889C29.4284 74.2811 29.9095 73.9418 30.0903 73.4333C31.3962 69.7634 34.8875 67.2978 38.7757 67.2978C42.6646 67.2978 46.1544 69.7634 47.4611 73.4333C47.6426 73.9418 48.1237 74.2811 48.6625 74.2811H71.8158C72.3553 74.2811 72.8358 73.9418 73.0165 73.4333C74.3232 69.7634 77.8137 67.2978 81.7019 67.2978C85.5908 67.2978 89.0807 69.7634 90.388 73.4333C90.5688 73.9418 91.0499 74.2811 91.5887 74.2811H97.2243C97.9295 74.2811 98.5 73.7099 98.5 73.0062V52.5367C98.5 52.0231 98.191 51.5585 97.717 51.3605L97.7185 51.3612Z" fill="white"/>
<path id="Vector_6" d="M80.7028 43.0043H73.9846V50.9693H86.386L86.319 50.8563C84.9303 48.5254 82.5086 44.9556 80.7028 43.0043Z" fill="white"/>
<path id="Vector_7" d="M75.7911 55.4669H79.8284V53.9982H75.7911V55.4669Z" fill="white"/>
</g>
</g>
</svg>
