<svg width="116" height="115" viewBox="0 0 116 115" fill="none" xmlns="http://www.w3.org/2000/svg">
<g id="Group 34">
<g id="Capa_x0020_1">
<path id="Vector" d="M30.1302 52.3495C31.0631 53.8263 31.8038 54.9092 32.0289 55.235C32.3219 55.6616 32.8071 55.9147 33.3251 55.9147C33.8431 55.9147 34.326 55.6616 34.6213 55.235C34.6776 55.1529 35.7159 53.6458 37.0075 51.5573C38.1724 52.1972 39.3983 52.7855 40.6758 53.3153C39.5835 56.3367 38.9436 59.3323 38.7725 62.2575H27.8847C28.0675 58.765 28.8481 55.4295 30.1279 52.3495H30.1302ZM33.3251 34.1556C35.4558 34.1556 37.3145 35.3369 38.2873 37.0762C38.742 37.8919 39.0045 38.8342 39.0045 39.8327C39.0045 40.0179 38.9694 40.271 38.8944 40.5828C38.599 41.8391 37.6896 44.1034 35.9503 47.2069C35.4769 48.0507 34.9424 48.9578 34.3424 49.9212C34.0212 50.4392 33.6837 50.9713 33.3227 51.5198C32.7508 50.6478 32.2328 49.8181 31.757 49.0281C31.0725 47.8913 30.4818 46.8412 29.9802 45.8895C28.3301 42.7486 27.6456 40.6531 27.6456 39.835C27.6456 36.7035 30.1935 34.1556 33.3251 34.1556ZM53.6943 34.104C52.0488 35.7073 49.9509 37.9294 47.8413 40.6531C45.3473 43.869 43.3479 47.1412 41.8642 50.4064C40.7321 49.9376 39.6468 49.4196 38.6154 48.8547C40.9922 44.6824 42.1548 41.7266 42.1548 39.835C42.1548 39.3287 42.1103 38.8295 42.0259 38.3466C45.5067 36.1761 49.461 34.697 53.6966 34.1064L53.6943 34.104ZM69.8536 36.312C72.3312 41.0469 75.4839 45.6645 76.0488 46.4802C76.3418 46.9068 76.827 47.16 77.3427 47.16C77.8607 47.16 78.3435 46.9068 78.6389 46.4802C78.8616 46.1568 79.4944 45.2332 80.3289 43.9417C81.1001 44.8113 81.8197 45.7255 82.4877 46.6795C80.1132 48.4609 77.2911 49.9329 74.1572 51.0533C72.6477 47.5749 70.5522 44.0823 67.8964 40.6531C65.7892 37.9317 63.6913 35.7096 62.0482 34.1064C64.786 34.4884 67.4042 35.2432 69.856 36.3144L69.8536 36.312ZM84.7731 27.5784C84.7731 29.7723 82.3517 34.5447 79.7406 38.9232C79.1827 39.8585 78.6154 40.775 78.0646 41.6446C77.8208 42.029 77.5794 42.4017 77.3427 42.7627C76.6465 41.6985 75.9128 40.5312 75.1885 39.3287C74.108 37.5356 73.0485 35.6604 72.1648 33.9095C70.8405 31.2819 69.9122 28.9379 69.9122 27.5807C69.9122 23.4834 73.2454 20.1503 77.3427 20.1503C81.4399 20.1503 84.7731 23.4834 84.7731 27.5807V27.5784ZM76.9582 62.2575C76.7989 59.5479 76.2386 56.7773 75.2917 53.9833C78.6014 52.7926 81.604 51.2362 84.159 49.3586C86.2943 53.2215 87.6023 57.6001 87.846 62.2575H76.9606H76.9582ZM83.5026 79.4366C80.9571 77.6716 78.0013 76.2113 74.7666 75.0955C76.0347 71.8304 76.7754 68.5793 76.9582 65.4055H87.846C87.5788 70.5248 86.0271 75.3065 83.5026 79.4366ZM61.7974 93.5942C63.4757 91.9979 65.6743 89.722 67.8871 86.8975C70.1842 83.9628 72.0617 80.9766 73.5056 77.9856C76.5645 79.0193 79.3421 80.3812 81.7189 82.0314C76.9817 88.2241 69.8935 92.5277 61.7974 93.5919V93.5942ZM34.7385 82.9525C34.7479 82.9455 34.7573 82.9408 34.7666 82.9338C36.9747 81.1946 39.5999 79.7366 42.5205 78.5951C43.9222 81.3844 45.6989 84.1644 47.8413 86.8998C50.0541 89.7243 52.2527 92.0003 53.931 93.5965C46.2404 92.5863 39.4593 88.6554 34.7385 82.9549V82.9525ZM56.289 35.9862V53.5168C52.241 53.3082 48.3594 52.6144 44.827 51.487C48.0687 44.5253 53.2137 38.9396 56.289 35.9862ZM59.437 53.5778V35.9769C62.5826 39.0006 67.9105 44.7926 71.1335 51.9956C67.4886 52.9824 63.5249 53.5286 59.437 53.5754V53.5778ZM59.437 91.4753V75.6862C63.2671 75.7307 66.9846 76.2113 70.435 77.0832C67.1815 83.5573 62.3623 88.7023 59.437 91.4753ZM56.289 75.7471V91.4776C53.4317 88.7773 48.7719 83.8175 45.5255 77.559C48.868 76.5605 52.5059 75.9394 56.289 75.7471ZM41.9251 65.4055H56.289V72.5968C52.0347 72.8031 47.9398 73.518 44.1824 74.6853C42.9752 71.7858 42.1338 68.666 41.9251 65.4055ZM71.7476 74.1767C67.8894 73.15 63.7241 72.5851 59.4394 72.5359V65.4032H73.8033C73.604 68.4714 72.8446 71.4178 71.7476 74.1743V74.1767ZM73.8033 62.2552H59.4394V56.7258C63.9281 56.6765 68.2879 56.0601 72.2984 54.9373C73.0977 57.2719 73.6415 59.7261 73.8033 62.2552ZM43.6222 54.4005C47.5296 55.6757 51.8238 56.4515 56.289 56.6672V62.2552H41.9251C42.1009 59.5315 42.7174 56.8945 43.6222 54.4005ZM38.7725 65.4055C38.9694 68.7832 39.7945 72.2499 41.2173 75.7284C38.0857 76.9684 35.2589 78.5482 32.8633 80.4257C29.9685 76.0776 28.173 70.9373 27.887 65.4055H38.7748H38.7725ZM57.8642 97C76.1543 97 91.0338 82.1204 91.0338 63.8327C91.0338 55.0803 87.6234 47.1084 82.0658 41.1758C84.7239 36.8066 87.921 30.8693 87.921 27.5784C87.921 21.7466 83.1745 17 77.3427 17C71.5108 17 66.7643 21.7466 66.7643 27.5784C66.7643 28.8254 67.2237 30.4521 67.9386 32.2288C64.7602 31.2139 61.3755 30.6631 57.8665 30.6631C51.6784 30.6631 45.8794 32.3695 40.9172 35.3323C39.3772 32.7445 36.5504 31.0053 33.3274 31.0053C28.459 31.0053 24.5 34.9666 24.5 39.8327C24.5 42.0946 26.3096 45.8403 28.1636 49.0844C25.9486 53.5286 24.6992 58.5377 24.6992 63.8327C24.6992 82.1204 39.5788 97 57.8689 97H57.8642Z" fill="white"/>
<path id="Vector_2" d="M33.3251 37.4208C34.3846 37.4208 35.2472 38.281 35.2472 39.3405C35.2472 39.4342 35.2378 39.5256 35.2237 39.6171C35.1018 40.4539 34.4408 41.1149 33.6064 41.2391C33.515 41.2508 33.4212 41.2625 33.3251 41.2625C32.2656 41.2625 31.4054 40.3999 31.4054 39.3405C31.4054 38.281 32.268 37.4208 33.3251 37.4208ZM31.8765 43.2479C32.3289 43.4143 32.8141 43.5104 33.3251 43.5104C35.6245 43.5104 37.495 41.6399 37.495 39.3405C37.495 38.8271 37.3966 38.3396 37.2278 37.8849C36.6348 36.3027 35.1112 35.1705 33.3251 35.1705C31.0256 35.1705 29.1552 37.041 29.1552 39.3405C29.1552 41.1313 30.2896 42.6549 31.8765 43.2455V43.2479Z" fill="white"/>
<path id="Vector_3" d="M77.3427 24.3109C78.8077 24.3109 79.9984 25.5016 79.9984 26.9666C79.9984 28.4316 78.8077 29.6223 77.3427 29.6223C75.8777 29.6223 74.687 28.4316 74.687 26.9666C74.687 25.5016 75.8777 24.3109 77.3427 24.3109ZM77.3427 31.8726C80.0476 31.8726 82.2486 29.6716 82.2486 26.9666C82.2486 24.2617 80.0476 22.0607 77.3427 22.0607C74.6377 22.0607 72.4391 24.2617 72.4391 26.9666C72.4391 29.6716 74.6401 31.8726 77.3427 31.8726Z" fill="white"/>
</g>
</g>
</svg>
